<?xml version="1.0" encoding="UTF-8" ?>
<svg version="1.1" width="16" height="16" xmlns="http://www.w3.org/2000/svg" shape-rendering="crispEdges">
<rect x="3" y="0" width="1" height="1" fill="#000000" />
<rect x="4" y="0" width="1" height="1" fill="#000000" />
<rect x="5" y="0" width="1" height="1" fill="#000000" />
<rect x="10" y="0" width="1" height="1" fill="#000000" />
<rect x="11" y="0" width="1" height="1" fill="#000000" />
<rect x="12" y="0" width="1" height="1" fill="#000000" />
<rect x="2" y="1" width="1" height="1" fill="#000000" />
<rect x="3" y="1" width="1" height="1" fill="#4D2380" />
<rect x="4" y="1" width="1" height="1" fill="#552181" />
<rect x="5" y="1" width="1" height="1" fill="#5D1F83" />
<rect x="6" y="1" width="1" height="1" fill="#000000" />
<rect x="9" y="1" width="1" height="1" fill="#000000" />
<rect x="10" y="1" width="1" height="1" fill="#86158D" />
<rect x="11" y="1" width="1" height="1" fill="#8E138F" />
<rect x="12" y="1" width="1" height="1" fill="#971291" />
<rect x="13" y="1" width="1" height="1" fill="#000000" />
<rect x="1" y="2" width="1" height="1" fill="#000000" />
<rect x="2" y="2" width="1" height="1" fill="#4F2280" />
<rect x="3" y="2" width="1" height="1" fill="#572082" />
<rect x="4" y="2" width="1" height="1" fill="#AD7BEA" />
<rect x="5" y="2" width="1" height="1" fill="#681C86" />
<rect x="6" y="2" width="1" height="1" fill="#701A88" />
<rect x="7" y="2" width="1" height="1" fill="#000000" />
<rect x="8" y="2" width="1" height="1" fill="#000000" />
<rect x="9" y="2" width="1" height="1" fill="#89158E" />
<rect x="10" y="2" width="1" height="1" fill="#911390" />
<rect x="11" y="2" width="1" height="1" fill="#991192" />
<rect x="12" y="2" width="1" height="1" fill="#A10F94" />
<rect x="13" y="2" width="1" height="1" fill="#A90D96" />
<rect x="14" y="2" width="1" height="1" fill="#000000" />
<rect x="0" y="3" width="1" height="1" fill="#000000" />
<rect x="1" y="3" width="1" height="1" fill="#512181" />
<rect x="2" y="3" width="1" height="1" fill="#592083" />
<rect x="3" y="3" width="1" height="1" fill="#AD7BEA" />
<rect x="4" y="3" width="1" height="1" fill="#6A1C87" />
<rect x="5" y="3" width="1" height="1" fill="#721A89" />
<rect x="6" y="3" width="1" height="1" fill="#7A188B" />
<rect x="7" y="3" width="1" height="1" fill="#83168D" />
<rect x="8" y="3" width="1" height="1" fill="#8B148F" />
<rect x="9" y="3" width="1" height="1" fill="#931291" />
<rect x="10" y="3" width="1" height="1" fill="#9B1093" />
<rect x="11" y="3" width="1" height="1" fill="#A40F95" />
<rect x="12" y="3" width="1" height="1" fill="#AC0D97" />
<rect x="13" y="3" width="1" height="1" fill="#B40B99" />
<rect x="14" y="3" width="1" height="1" fill="#BC099B" />
<rect x="15" y="3" width="1" height="1" fill="#000000" />
<rect x="0" y="4" width="1" height="1" fill="#000000" />
<rect x="1" y="4" width="1" height="1" fill="#5C1F83" />
<rect x="2" y="4" width="1" height="1" fill="#AD7BEA" />
<rect x="3" y="4" width="1" height="1" fill="#6C1B87" />
<rect x="4" y="4" width="1" height="1" fill="#751989" />
<rect x="5" y="4" width="1" height="1" fill="#7D178B" />
<rect x="6" y="4" width="1" height="1" fill="#85168D" />
<rect x="7" y="4" width="1" height="1" fill="#8D148F" />
<rect x="8" y="4" width="1" height="1" fill="#951291" />
<rect x="9" y="4" width="1" height="1" fill="#9E1093" />
<rect x="10" y="4" width="1" height="1" fill="#A60E95" />
<rect x="11" y="4" width="1" height="1" fill="#AE0C97" />
<rect x="12" y="4" width="1" height="1" fill="#B60A99" />
<rect x="13" y="4" width="1" height="1" fill="#BF089B" />
<rect x="14" y="4" width="1" height="1" fill="#C7079D" />
<rect x="15" y="4" width="1" height="1" fill="#000000" />
<rect x="0" y="5" width="1" height="1" fill="#000000" />
<rect x="1" y="5" width="1" height="1" fill="#661D86" />
<rect x="2" y="5" width="1" height="1" fill="#AD7BEA" />
<rect x="3" y="5" width="1" height="1" fill="#77198A" />
<rect x="4" y="5" width="1" height="1" fill="#7F178C" />
<rect x="5" y="5" width="1" height="1" fill="#87158E" />
<rect x="6" y="5" width="1" height="1" fill="#901390" />
<rect x="7" y="5" width="1" height="1" fill="#981192" />
<rect x="8" y="5" width="1" height="1" fill="#A00F94" />
<rect x="9" y="5" width="1" height="1" fill="#A80E96" />
<rect x="10" y="5" width="1" height="1" fill="#B10C98" />
<rect x="11" y="5" width="1" height="1" fill="#B90A9A" />
<rect x="12" y="5" width="1" height="1" fill="#C1089C" />
<rect x="13" y="5" width="1" height="1" fill="#C9069E" />
<rect x="14" y="5" width="1" height="1" fill="#D104A0" />
<rect x="15" y="5" width="1" height="1" fill="#000000" />
<rect x="0" y="6" width="1" height="1" fill="#000000" />
<rect x="1" y="6" width="1" height="1" fill="#711A88" />
<rect x="2" y="6" width="1" height="1" fill="#AD7BEA" />
<rect x="3" y="6" width="1" height="1" fill="#81168C" />
<rect x="4" y="6" width="1" height="1" fill="#8A158E" />
<rect x="5" y="6" width="1" height="1" fill="#921390" />
<rect x="6" y="6" width="1" height="1" fill="#9A1192" />
<rect x="7" y="6" width="1" height="1" fill="#A20F94" />
<rect x="8" y="6" width="1" height="1" fill="#AB0D96" />
<rect x="9" y="6" width="1" height="1" fill="#B30B98" />
<rect x="10" y="6" width="1" height="1" fill="#BB099A" />
<rect x="11" y="6" width="1" height="1" fill="#C3079C" />
<rect x="12" y="6" width="1" height="1" fill="#CC059E" />
<rect x="13" y="6" width="1" height="1" fill="#D404A0" />
<rect x="14" y="6" width="1" height="1" fill="#DC02A2" />
<rect x="15" y="6" width="1" height="1" fill="#000000" />
<rect x="0" y="7" width="1" height="1" fill="#000000" />
<rect x="1" y="7" width="1" height="1" fill="#7C188B" />
<rect x="2" y="7" width="1" height="1" fill="#84168D" />
<rect x="3" y="7" width="1" height="1" fill="#8C148F" />
<rect x="4" y="7" width="1" height="1" fill="#941291" />
<rect x="5" y="7" width="1" height="1" fill="#9D1093" />
<rect x="6" y="7" width="1" height="1" fill="#A50E95" />
<rect x="7" y="7" width="1" height="1" fill="#AD0C97" />
<rect x="8" y="7" width="1" height="1" fill="#B50B99" />
<rect x="9" y="7" width="1" height="1" fill="#BD099B" />
<rect x="10" y="7" width="1" height="1" fill="#C6079D" />
<rect x="11" y="7" width="1" height="1" fill="#CE059F" />
<rect x="12" y="7" width="1" height="1" fill="#D603A1" />
<rect x="13" y="7" width="1" height="1" fill="#DE01A3" />
<rect x="14" y="7" width="1" height="1" fill="#E600A5" />
<rect x="15" y="7" width="1" height="1" fill="#000000" />
<rect x="0" y="8" width="1" height="1" fill="#000000" />
<rect x="1" y="8" width="1" height="1" fill="#86158D" />
<rect x="2" y="8" width="1" height="1" fill="#8E138F" />
<rect x="3" y="8" width="1" height="1" fill="#971291" />
<rect x="4" y="8" width="1" height="1" fill="#9F1093" />
<rect x="5" y="8" width="1" height="1" fill="#A70E95" />
<rect x="6" y="8" width="1" height="1" fill="#AF0C97" />
<rect x="7" y="8" width="1" height="1" fill="#B80A99" />
<rect x="8" y="8" width="1" height="1" fill="#C0089B" />
<rect x="9" y="8" width="1" height="1" fill="#C8069D" />
<rect x="10" y="8" width="1" height="1" fill="#D0049F" />
<rect x="11" y="8" width="1" height="1" fill="#D902A1" />
<rect x="12" y="8" width="1" height="1" fill="#E101A3" />
<rect x="13" y="8" width="1" height="1" fill="#E600A5" />
<rect x="14" y="8" width="1" height="1" fill="#E600A5" />
<rect x="15" y="8" width="1" height="1" fill="#000000" />
<rect x="1" y="9" width="1" height="1" fill="#000000" />
<rect x="2" y="9" width="1" height="1" fill="#991192" />
<rect x="3" y="9" width="1" height="1" fill="#A10F94" />
<rect x="4" y="9" width="1" height="1" fill="#A90D96" />
<rect x="5" y="9" width="1" height="1" fill="#B20B98" />
<rect x="6" y="9" width="1" height="1" fill="#BA099A" />
<rect x="7" y="9" width="1" height="1" fill="#C2089C" />
<rect x="8" y="9" width="1" height="1" fill="#CA069E" />
<rect x="9" y="9" width="1" height="1" fill="#D304A0" />
<rect x="10" y="9" width="1" height="1" fill="#DB02A2" />
<rect x="11" y="9" width="1" height="1" fill="#E300A4" />
<rect x="12" y="9" width="1" height="1" fill="#E600A5" />
<rect x="13" y="9" width="1" height="1" fill="#E600A5" />
<rect x="14" y="9" width="1" height="1" fill="#000000" />
<rect x="2" y="10" width="1" height="1" fill="#000000" />
<rect x="3" y="10" width="1" height="1" fill="#AC0D97" />
<rect x="4" y="10" width="1" height="1" fill="#B40B99" />
<rect x="5" y="10" width="1" height="1" fill="#BC099B" />
<rect x="6" y="10" width="1" height="1" fill="#C5079D" />
<rect x="7" y="10" width="1" height="1" fill="#CD059F" />
<rect x="8" y="10" width="1" height="1" fill="#D503A1" />
<rect x="9" y="10" width="1" height="1" fill="#DD01A3" />
<rect x="10" y="10" width="1" height="1" fill="#E600A5" />
<rect x="11" y="10" width="1" height="1" fill="#E600A5" />
<rect x="12" y="10" width="1" height="1" fill="#E600A5" />
<rect x="13" y="10" width="1" height="1" fill="#000000" />
<rect x="3" y="11" width="1" height="1" fill="#000000" />
<rect x="4" y="11" width="1" height="1" fill="#BF089B" />
<rect x="5" y="11" width="1" height="1" fill="#C7079D" />
<rect x="6" y="11" width="1" height="1" fill="#CF059F" />
<rect x="7" y="11" width="1" height="1" fill="#D703A1" />
<rect x="8" y="11" width="1" height="1" fill="#E001A3" />
<rect x="9" y="11" width="1" height="1" fill="#E600A5" />
<rect x="10" y="11" width="1" height="1" fill="#E600A5" />
<rect x="11" y="11" width="1" height="1" fill="#E600A5" />
<rect x="12" y="11" width="1" height="1" fill="#000000" />
<rect x="4" y="12" width="1" height="1" fill="#000000" />
<rect x="5" y="12" width="1" height="1" fill="#D104A0" />
<rect x="6" y="12" width="1" height="1" fill="#DA02A2" />
<rect x="7" y="12" width="1" height="1" fill="#E200A4" />
<rect x="8" y="12" width="1" height="1" fill="#E600A5" />
<rect x="9" y="12" width="1" height="1" fill="#E600A5" />
<rect x="10" y="12" width="1" height="1" fill="#E600A5" />
<rect x="11" y="12" width="1" height="1" fill="#000000" />
<rect x="5" y="13" width="1" height="1" fill="#000000" />
<rect x="6" y="13" width="1" height="1" fill="#E400A4" />
<rect x="7" y="13" width="1" height="1" fill="#E600A5" />
<rect x="8" y="13" width="1" height="1" fill="#E600A5" />
<rect x="9" y="13" width="1" height="1" fill="#E600A5" />
<rect x="10" y="13" width="1" height="1" fill="#000000" />
<rect x="6" y="14" width="1" height="1" fill="#000000" />
<rect x="7" y="14" width="1" height="1" fill="#E600A5" />
<rect x="8" y="14" width="1" height="1" fill="#E600A5" />
<rect x="9" y="14" width="1" height="1" fill="#000000" />
<rect x="7" y="15" width="1" height="1" fill="#000000" />
<rect x="8" y="15" width="1" height="1" fill="#000000" />
</svg>